<svg xmlns="http://www.w3.org/2000/svg" id="Layer_1" data-name="Layer 1" viewBox="0 0 128 128"><defs><style>.cls-1{fill:#f8dc25}.cls-2{fill:#f2bc0f;opacity:.7}.cls-3{fill:#393c54}.cls-4{fill:#fff}.cls-5,.cls-6{fill:#515570}.cls-6{opacity:.1}</style></defs><title/><circle cx="64" cy="64" r="58" class="cls-1"/><path d="M53,107A71.65,71.65,0,0,1,16.25,96.91,58,58,0,0,0,121.56,57,72,72,0,0,1,53,107Z" class="cls-2"/><path d="M90.3,77a3.3,3.3,0,0,1,3.28,3.7,29.76,29.76,0,0,1-59.15,0A3.3,3.3,0,0,1,37.7,77Z" class="cls-3"/><path d="M45,77H83a0,0,0,0,1,0,0v5a4,4,0,0,1-4,4H49a4,4,0,0,1-4-4V77A0,0,0,0,1,45,77Z" class="cls-4"/><path d="M45,100.21a29.52,29.52,0,0,0,38,0V100a4,4,0,0,0-4-4H49a4,4,0,0,0-4,4Z" class="cls-4"/><circle cx="39" cy="59" r="13" class="cls-4"/><circle cx="39" cy="59" r="7" class="cls-5"/><path d="M26,77c0-7.18,5.82-10,13-10s13,2.82,13,10" class="cls-1"/><circle cx="89" cy="59" r="13" class="cls-4"/><circle cx="89" cy="59" r="7" class="cls-5"/><path d="M76,77c0-7.18,5.82-10,13-10s13,2.82,13,10" class="cls-1"/><rect width="42" height="4" x="43" y="77" class="cls-6"/></svg>